<?xml version="1.0" encoding="UTF-8"?>
<svg version="1.1" xmlns="http://www.w3.org/2000/svg" width="64" height="64">
<path d="M0 0 C0.95390625 -0.0038269 1.9078125 -0.00765381 2.890625 -0.01159668 C4.90105245 -0.01431036 6.91151553 -0.00698737 8.921875 0.00976562 C11.99038787 0.03118291 15.05655952 0.00994534 18.125 -0.015625 C20.08333848 -0.01298163 22.0416755 -0.00785645 24 0 C25.36898437 -0.01214539 25.36898437 -0.01214539 26.765625 -0.02453613 C32.32079872 0.056806 35.69337704 0.68925526 40 4.53125 C44.54282076 9.62345276 44.58891916 14.03098908 44.53125 20.53125 C44.53699036 21.96210937 44.53699036 21.96210937 44.54284668 23.421875 C44.54556036 25.43230245 44.53823737 27.44276553 44.52148438 29.453125 C44.50006709 32.52163787 44.52130466 35.58780952 44.546875 38.65625 C44.54423163 40.61458848 44.53910645 42.5729255 44.53125 44.53125 C44.53934692 45.44390625 44.54744385 46.3565625 44.55578613 47.296875 C44.474444 52.85204872 43.84199474 56.22462704 40 60.53125 C34.90779724 65.07407076 30.50026092 65.12016916 24 65.0625 C22.56914063 65.06824036 22.56914063 65.06824036 21.109375 65.07409668 C19.09894755 65.07681036 17.08848447 65.06948737 15.078125 65.05273438 C12.00961213 65.03131709 8.94344048 65.05255466 5.875 65.078125 C3.91666152 65.07548163 1.9583245 65.07035645 0 65.0625 C-0.91265625 65.07059692 -1.8253125 65.07869385 -2.765625 65.08703613 C-8.32079872 65.005694 -11.69337704 64.37324474 -16 60.53125 C-20.54282076 55.43904724 -20.58891916 51.03151092 -20.53125 44.53125 C-20.5350769 43.57734375 -20.53890381 42.6234375 -20.54284668 41.640625 C-20.54556036 39.63019755 -20.53823737 37.61973447 -20.52148438 35.609375 C-20.50006709 32.54086213 -20.52130466 29.47469048 -20.546875 26.40625 C-20.54423163 24.44791152 -20.53910645 22.4895745 -20.53125 20.53125 C-20.53934692 19.61859375 -20.54744385 18.7059375 -20.55578613 17.765625 C-20.474444 12.21045128 -19.84199474 8.83787296 -16 4.53125 C-10.90779724 -0.01157076 -6.50026092 -0.05766916 0 0 Z " fill="#2CB1EA" transform="translate(20,-0.53125)"/>
<path d="M0 0 C3.01125 -0.0825 6.0225 -0.165 9.125 -0.25 C10.06230957 -0.28641602 10.99961914 -0.32283203 11.96533203 -0.36035156 C17.49562174 -0.43338201 20.67803776 0.22950475 25 4 C27.75076146 6.75534606 28.87499023 8.26556762 29.53125 12.12109375 C29.42564442 23.32848645 29.42564442 23.32848645 25 28 C21.26688355 31.38313678 17.84017019 32.1351528 12.890625 32.09765625 C11.8701709 32.09390991 11.8701709 32.09390991 10.82910156 32.09008789 C9.97799805 32.08098389 9.12689453 32.07187988 8.25 32.0625 C5.5275 32.041875 2.805 32.02125 0 32 C0 21.44 0 10.88 0 0 Z " fill="#F6FCFE" transform="translate(17,16)"/>
<path d="M0 0 C8.43356017 0 8.43356017 0 11.89453125 3.23828125 C14.18390871 6.88672378 13.78167182 10.90486978 13 15 C11.5625 17.5625 11.5625 17.5625 9 19 C6.03 19.33 3.06 19.66 0 20 C0 13.4 0 6.8 0 0 Z " fill="#3BB7EC" transform="translate(25,22)"/>
</svg>
